<svg id="Layer_1" enable-background="new 0 0 512.151 512.151" height="512" viewBox="0 0 512.151 512.151" width="512" xmlns="http://www.w3.org/2000/svg"><g><path d="m467.873 0h-289.411c-22.319 0-40.477 18.158-40.477 40.44l-.071 29.455c-12.326 5.431-23.778 12.962-33.903 22.437-45.931 42.982-50.748 113.677-12.821 162.38l-82.994 82.995c-5.858 5.858-5.858 15.355 0 21.213 2.929 2.929 6.768 4.394 10.606 4.394s7.678-1.464 10.606-4.394l82.985-82.985c7.983 6.216 16.59 11.289 25.591 15.227v180.513c0 22.319 18.158 40.477 40.477 40.477h289.412c22.318 0 40.476-18.158 40.476-40.477v-431.198c0-22.319-18.157-40.477-40.476-40.477zm-372.077 177.54c.804-24.246 11.002-46.727 28.714-63.303 9.528-8.917 20.618-15.549 32.605-19.651.182-.053.361-.113.539-.173 9.192-3.08 18.9-4.686 28.836-4.686 1.025 0 2.056.017 3.085.051 24.246.804 46.727 11.001 63.303 28.715 16.576 17.712 25.262 40.82 24.458 65.066s-11.002 46.727-28.714 63.303c-17.713 16.576-40.832 25.263-65.066 24.458-8.91-.296-17.577-1.87-25.805-4.61-.184-.062-.369-.121-.556-.176-13.944-4.743-26.594-12.871-36.942-23.928-16.576-17.713-25.261-40.821-24.457-65.066zm382.553 294.135c0 5.777-4.699 10.477-10.476 10.477h-289.411c-5.777 0-10.477-4.7-10.477-10.477v-171.796c6.164.953 12.39 1.436 18.62 1.436 29.594-.001 59.254-10.779 82.517-32.547 23.563-22.051 37.13-51.958 38.199-84.213 1.069-32.254-10.485-62.995-32.537-86.559-22.051-23.564-51.958-37.13-84.213-38.2-7.656-.255-15.225.211-22.635 1.351l.05-20.67c0-5.777 4.7-10.477 10.477-10.477h289.412c5.776 0 10.476 4.7 10.476 10.477v431.198z"/><path d="m424.381 448.685c8.284 0 15-6.716 15-15v-50.957c0-13.067-10.631-23.698-23.698-23.698h-43.677v-24.161c0-14.397-11.713-26.111-26.11-26.111h-47.827c-13.144 0-23.837 10.693-23.837 23.837v2.598h-42.526c-13.709 0-24.862 11.153-24.862 24.862v73.629c0 8.284 6.716 15 15 15h202.537zm-150.162-30h-37.375v-53.492h37.375zm30.013-79.927h37.774v79.927h-37.774zm105.149 79.927h-37.375v-29.655h37.375z"/></g></svg>